<?xml version="1.0" encoding="utf-8"?>
<!-- Generator: Adobe Illustrator 19.0.0, SVG Export Plug-In . SVG Version: 6.00 Build 0)  -->
<svg version="1.1" id="Layer_1" xmlns="http://www.w3.org/2000/svg" xmlns:xlink="http://www.w3.org/1999/xlink" x="0px" y="0px"
	 viewBox="0 0 500 500" style="enable-background:new 0 0 500 500;" xml:space="preserve">
<style type="text/css">
	.st0{fill:#4EA0D8;}
</style>
<g id="XMLID_1_">
	<path id="XMLID_62_" class="st0" d="M108.6,213.5l39.7,68c0,0-0.3,1.7-1.2,0.8c-0.9-1-14.1-10.6-19.8-13.9
		c-5.7-3.3-15.5-6.9-16-7.2c-0.5-0.3-3.3-2.9-4.1-7.3c-1.5-8.7-1.8-24.5-1.4-31.3c0.2-3,0.4-6.8,0.9-8.4
		C107.1,213.1,108.3,212.9,108.6,213.5z"/>
	<path id="XMLID_61_" class="st0" d="M69.8,286.2c0,0,16.1-6.7,23.7-12.1c7.6-5.4,11.2-7.8,12.2-8.5c1-0.7,2.3-1.7,11,1.4
		c9.6,3.5,24.2,12.7,26.6,14.6c2.4,1.9,7.5,6.2,2.9,6.1c-4.6-0.1-56.3,0-75.9,0C69.1,287.6,67.4,287.1,69.8,286.2z"/>
	<path id="XMLID_60_" class="st0" d="M104.4,214.8c0.1,2.7-1.1,16.3-1.3,18.8c-0.2,2.5-0.3,13.3-0.1,16.1c0.1,2.7,1.3,10.1-0.4,12.5
		c-1.8,2.4-14.8,14.6-31.2,21.1c-7.9,3.1-7.5,1.4-3.8-5.3C70.6,272.5,104.4,213.3,104.4,214.8z"/>
	<g id="XMLID_33_">
		<path id="XMLID_58_" class="st0" d="M185.2,261c0,0.3,0,0.5,0,0.7c0,0.2-0.1,0.3-0.2,0.5c-0.1,0.1-0.2,0.2-0.3,0.3
			c-0.1,0.1-0.2,0.1-0.3,0.1h-8.5v23.2c0,0.1,0,0.2-0.1,0.3c-0.1,0.1-0.2,0.1-0.3,0.2c-0.2,0-0.4,0.1-0.6,0.1c-0.3,0-0.6,0.1-1,0.1
			c-0.4,0-0.7,0-1-0.1c-0.3,0-0.5-0.1-0.6-0.1c-0.2,0-0.3-0.1-0.3-0.2c-0.1-0.1-0.1-0.2-0.1-0.3v-23.2h-8.5c-0.1,0-0.2,0-0.3-0.1
			c-0.1-0.1-0.2-0.1-0.2-0.3c-0.1-0.1-0.1-0.3-0.1-0.5c0-0.2-0.1-0.4-0.1-0.7c0-0.3,0-0.5,0.1-0.7c0-0.2,0.1-0.4,0.1-0.5
			c0.1-0.1,0.1-0.2,0.2-0.3c0.1-0.1,0.2-0.1,0.3-0.1h21.1c0.1,0,0.2,0,0.3,0.1c0.1,0.1,0.2,0.1,0.3,0.3c0.1,0.1,0.1,0.3,0.2,0.5
			C185.2,260.5,185.2,260.7,185.2,261z"/>
		<path id="XMLID_54_" class="st0" d="M222.1,278.5c0,0.8-0.1,1.6-0.4,2.3c-0.2,0.7-0.6,1.3-1,1.9c-0.4,0.6-1,1.1-1.6,1.5
			c-0.6,0.4-1.3,0.8-2.1,1.1c-0.8,0.3-1.6,0.5-2.5,0.7c-0.9,0.1-1.9,0.2-3,0.2h-7.9c-0.4,0-0.7-0.1-1-0.3c-0.3-0.2-0.5-0.6-0.5-1.1
			v-23.8c0-0.5,0.2-0.9,0.5-1.1c0.3-0.2,0.7-0.3,1-0.3h6.9c1.8,0,3.3,0.2,4.5,0.5c1.2,0.3,2.1,0.7,2.9,1.3c0.8,0.6,1.4,1.3,1.7,2.1
			c0.4,0.8,0.6,1.8,0.6,2.8c0,0.6-0.1,1.2-0.3,1.8c-0.2,0.6-0.4,1.1-0.8,1.6c-0.3,0.5-0.8,0.9-1.3,1.3c-0.5,0.4-1.1,0.7-1.7,0.9
			c0.8,0.1,1.6,0.4,2.3,0.8c0.7,0.4,1.3,0.8,1.9,1.4c0.5,0.6,1,1.2,1.3,2C221.9,276.8,222.1,277.6,222.1,278.5z M216,266.6
			c0-0.6-0.1-1.2-0.3-1.8c-0.2-0.5-0.5-1-1-1.3c-0.4-0.4-1-0.6-1.7-0.8c-0.7-0.2-1.6-0.3-2.8-0.3h-4.2v8.7h4.6c1,0,1.9-0.1,2.5-0.4
			c0.6-0.2,1.2-0.6,1.6-1c0.4-0.4,0.7-0.9,0.9-1.4C215.9,267.7,216,267.1,216,266.6z M217.9,278.7c0-0.8-0.1-1.5-0.4-2.1
			c-0.3-0.6-0.7-1.1-1.3-1.5c-0.6-0.4-1.2-0.7-2.1-0.9c-0.8-0.2-1.9-0.3-3.1-0.3h-4.8v9.4h5.8c0.9,0,1.7-0.1,2.4-0.3
			c0.7-0.2,1.3-0.5,1.8-0.9c0.5-0.4,0.9-0.9,1.2-1.4C217.7,280.1,217.9,279.5,217.9,278.7z"/>
		<path id="XMLID_52_" class="st0" d="M261,282.4c0,0.2,0,0.4,0,0.6c0,0.2,0,0.3-0.1,0.4c0,0.1-0.1,0.2-0.2,0.3
			c-0.1,0.1-0.2,0.2-0.3,0.4c-0.2,0.1-0.5,0.3-1,0.6c-0.5,0.3-1.1,0.6-1.9,0.8c-0.7,0.3-1.6,0.5-2.6,0.7c-1,0.2-2,0.3-3.1,0.3
			c-2,0-3.7-0.3-5.3-0.9c-1.6-0.6-2.9-1.4-4.1-2.6c-1.1-1.1-2-2.5-2.6-4.2c-0.6-1.7-0.9-3.6-0.9-5.7c0-2.2,0.3-4.2,1-5.9
			c0.6-1.7,1.6-3.2,2.7-4.4c1.2-1.2,2.6-2.1,4.2-2.8c1.6-0.6,3.4-1,5.4-1c0.9,0,1.7,0.1,2.6,0.2c0.8,0.1,1.6,0.3,2.3,0.5
			c0.7,0.2,1.3,0.5,1.9,0.8c0.5,0.3,0.9,0.5,1.1,0.7c0.2,0.2,0.3,0.3,0.4,0.4c0.1,0.1,0.1,0.2,0.2,0.3c0,0.1,0.1,0.3,0.1,0.5
			c0,0.2,0,0.4,0,0.6c0,0.3,0,0.5,0,0.7c0,0.2-0.1,0.4-0.1,0.5c-0.1,0.1-0.1,0.2-0.2,0.3c-0.1,0.1-0.2,0.1-0.3,0.1
			c-0.2,0-0.5-0.1-0.9-0.4c-0.4-0.3-0.9-0.6-1.5-0.9c-0.6-0.3-1.4-0.6-2.3-0.9c-0.9-0.3-2-0.4-3.2-0.4c-1.4,0-2.6,0.2-3.7,0.7
			c-1.1,0.5-2.1,1.2-2.8,2.1c-0.8,0.9-1.4,2-1.8,3.4c-0.4,1.3-0.6,2.8-0.6,4.6c0,1.7,0.2,3.2,0.6,4.5c0.4,1.3,1,2.4,1.8,3.3
			c0.8,0.9,1.7,1.5,2.9,2c1.1,0.4,2.4,0.7,3.8,0.7c1.2,0,2.3-0.1,3.2-0.4c0.9-0.3,1.7-0.6,2.3-0.9c0.6-0.3,1.2-0.6,1.6-0.9
			c0.4-0.3,0.7-0.4,1-0.4c0.1,0,0.2,0,0.3,0.1c0.1,0,0.1,0.1,0.2,0.2c0,0.1,0.1,0.3,0.1,0.5C261,281.8,261,282.1,261,282.4z"/>
		<path id="XMLID_44_" class="st0" d="M317.2,278.5c0,0.8-0.1,1.6-0.4,2.3c-0.2,0.7-0.6,1.3-1,1.9c-0.4,0.6-1,1.1-1.6,1.5
			c-0.6,0.4-1.3,0.8-2.1,1.1c-0.8,0.3-1.6,0.5-2.5,0.7c-0.9,0.1-1.9,0.2-3,0.2h-7.9c-0.4,0-0.7-0.1-1-0.3c-0.3-0.2-0.5-0.6-0.5-1.1
			v-23.8c0-0.5,0.2-0.9,0.5-1.1c0.3-0.2,0.7-0.3,1-0.3h6.9c1.8,0,3.3,0.2,4.5,0.5c1.2,0.3,2.1,0.7,2.9,1.3c0.8,0.6,1.4,1.3,1.7,2.1
			c0.4,0.8,0.6,1.8,0.6,2.8c0,0.6-0.1,1.2-0.3,1.8c-0.2,0.6-0.4,1.1-0.8,1.6c-0.3,0.5-0.8,0.9-1.3,1.3c-0.5,0.4-1.1,0.7-1.7,0.9
			c0.8,0.1,1.6,0.4,2.3,0.8c0.7,0.4,1.3,0.8,1.9,1.4c0.5,0.6,1,1.2,1.3,2C317.1,276.8,317.2,277.6,317.2,278.5z M311.2,266.6
			c0-0.6-0.1-1.2-0.3-1.8c-0.2-0.5-0.5-1-1-1.3c-0.4-0.4-1-0.6-1.7-0.8c-0.7-0.2-1.6-0.3-2.8-0.3h-4.2v8.7h4.6c1,0,1.9-0.1,2.5-0.4
			c0.6-0.2,1.2-0.6,1.6-1c0.4-0.4,0.7-0.9,0.9-1.4C311.1,267.7,311.2,267.1,311.2,266.6z M313,278.7c0-0.8-0.1-1.5-0.4-2.1
			c-0.3-0.6-0.7-1.1-1.3-1.5c-0.6-0.4-1.2-0.7-2.1-0.9c-0.8-0.2-1.9-0.3-3.1-0.3h-4.8v9.4h5.8c0.9,0,1.7-0.1,2.4-0.3
			c0.7-0.2,1.3-0.5,1.8-0.9c0.5-0.4,0.9-0.9,1.2-1.4C312.9,280.1,313,279.5,313,278.7z"/>
		<path id="XMLID_43_" class="st0" d="M340.4,276.3l5.2-13.3h0l5.3,13.3l1.1,2.8l2.6,6.5c0.1,0.1,0.1,0.2,0.2,0.3
			c0.1,0.1,0.2,0.1,0.3,0.2c0.1,0,0.4,0.1,0.7,0.1c0.3,0,0.7,0,1.2,0c0.5,0,0.9,0,1.2,0c0.3,0,0.5-0.1,0.6-0.2
			c0.1-0.1,0.2-0.2,0.2-0.4c0-0.2-0.1-0.4-0.2-0.7l-10.2-24.8c-0.1-0.1-0.1-0.3-0.3-0.4c-0.1-0.1-0.3-0.2-0.5-0.2
			c-0.2-0.1-0.5-0.1-0.8-0.1c-0.3,0-0.7,0-1.2,0c-0.5,0-0.9,0-1.2,0c-0.3,0-0.6,0.1-0.7,0.1c-0.2,0.1-0.3,0.1-0.4,0.2
			c-0.1,0.1-0.2,0.2-0.2,0.4L333,284.9c-0.1,0.3-0.2,0.5-0.2,0.7c0,0.2,0,0.3,0.2,0.4c0.1,0.1,0.3,0.2,0.6,0.2
			c0.3,0,0.7,0.1,1.1,0.1c0.4,0,0.8,0,1.1,0c0.3,0,0.5-0.1,0.6-0.1c0.1-0.1,0.3-0.1,0.3-0.2c0.1-0.1,0.1-0.2,0.2-0.3l2.5-6.4l0,0"/>
		<path id="XMLID_42_" class="st0" d="M345.5,281.5L345.5,281.5l3.2,0c0,0,0.2,0,0.4,0c0.2,0,0.3,0,0.4,0c0.1,0,0.2,0,0.2,0
			c0,0,0.1-0.1,0.1-0.1c0,0,0-0.1-0.1-0.2l-3.2-6.3c0,0,0-0.1-0.1-0.1c0,0-0.1,0-0.1-0.1c-0.1,0-0.1,0-0.2,0c-0.1,0-0.2,0-0.4,0
			c-0.1,0-0.3,0-0.4,0c-0.1,0-0.2,0-0.2,0c-0.1,0-0.1,0-0.1,0.1c0,0-0.1,0.1-0.1,0.1l-3.2,6.3c0,0.1-0.1,0.1-0.1,0.2
			c0,0,0,0.1,0.1,0.1c0,0,0.1,0,0.2,0c0.1,0,0.2,0,0.4,0c0.1,0,0.2,0,0.3,0C342.5,281.5,345.5,281.5,345.5,281.5L345.5,281.5"/>
		<path id="XMLID_37_" class="st0" d="M397.5,284.7c0,0.3-0.1,0.5-0.2,0.7c-0.1,0.2-0.2,0.3-0.4,0.5c-0.2,0.1-0.4,0.2-0.6,0.3
			c-0.2,0.1-0.4,0.1-0.6,0.1h-1.3c-0.4,0-0.8,0-1.1-0.1c-0.3-0.1-0.6-0.2-0.9-0.4c-0.3-0.2-0.6-0.5-0.8-0.8
			c-0.3-0.3-0.6-0.8-0.9-1.3l-9.3-15.2c-0.5-0.8-1-1.6-1.5-2.5c-0.5-0.9-0.9-1.7-1.4-2.5h0c0,1,0.1,2,0.1,3c0,1,0,2.1,0,3.1v16.1
			c0,0.1,0,0.2-0.1,0.3c-0.1,0.1-0.2,0.2-0.3,0.2c-0.2,0-0.4,0.1-0.6,0.1c-0.3,0-0.6,0.1-1,0.1c-0.4,0-0.7,0-1-0.1
			c-0.3,0-0.5-0.1-0.6-0.1c-0.1,0-0.3-0.1-0.3-0.2c-0.1-0.1-0.1-0.2-0.1-0.3V261c0-0.6,0.2-0.9,0.5-1.2c0.4-0.2,0.7-0.4,1.2-0.4h2
			c0.5,0,0.9,0,1.2,0.1c0.3,0.1,0.6,0.2,0.8,0.3c0.2,0.2,0.5,0.4,0.7,0.7c0.2,0.3,0.5,0.6,0.7,1.1l7.1,11.7c0.4,0.7,0.9,1.4,1.3,2.1
			c0.4,0.7,0.8,1.3,1.2,2c0.4,0.7,0.8,1.3,1.1,2c0.4,0.6,0.7,1.3,1.1,1.9h0c0-1.1,0-2.2-0.1-3.4c0-1.2,0-2.3,0-3.4v-14.5
			c0-0.1,0-0.2,0.1-0.3c0.1-0.1,0.2-0.2,0.3-0.2c0.2-0.1,0.4-0.1,0.6-0.1c0.3,0,0.6,0,1,0c0.4,0,0.7,0,0.9,0c0.3,0,0.5,0.1,0.6,0.1
			c0.1,0.1,0.3,0.1,0.3,0.2c0.1,0.1,0.1,0.2,0.1,0.3V284.7z"/>
		<path id="XMLID_34_" class="st0" d="M435,285.6c0,0.1,0,0.2-0.1,0.3c-0.1,0.1-0.2,0.2-0.3,0.2c-0.2,0.1-0.4,0.1-0.6,0.1
			c-0.3,0-0.6,0.1-1,0.1c-0.5,0-1,0-1.3-0.1c-0.3,0-0.6-0.1-0.8-0.2c-0.2-0.1-0.3-0.2-0.4-0.4l-11.2-13.4v13.4c0,0.1,0,0.2-0.1,0.3
			c-0.1,0.1-0.2,0.2-0.3,0.2c-0.2,0-0.4,0.1-0.6,0.1c-0.3,0-0.6,0.1-1,0.1c-0.4,0-0.7,0-1-0.1c-0.3,0-0.5-0.1-0.6-0.1
			c-0.2,0-0.3-0.1-0.3-0.2c-0.1-0.1-0.1-0.2-0.1-0.3V260c0-0.1,0-0.2,0.1-0.3c0.1-0.1,0.2-0.1,0.3-0.2c0.2,0,0.4-0.1,0.6-0.1
			c0.3,0,0.6-0.1,1-0.1c0.4,0,0.7,0,1,0.1c0.3,0,0.5,0.1,0.6,0.1c0.2,0,0.3,0.1,0.3,0.2c0.1,0.1,0.1,0.2,0.1,0.3v11.9L430,260
			c0.1-0.1,0.2-0.2,0.3-0.3c0.1-0.1,0.3-0.2,0.5-0.2c0.2,0,0.4-0.1,0.7-0.1c0.3,0,0.6,0,1,0c0.4,0,0.7,0,1,0.1
			c0.3,0,0.5,0.1,0.6,0.1c0.1,0.1,0.2,0.1,0.3,0.2c0.1,0.1,0.1,0.2,0.1,0.3c0,0.2-0.1,0.4-0.2,0.5c-0.1,0.2-0.3,0.4-0.6,0.7
			l-10.1,10.6l10.8,12.7c0.3,0.4,0.4,0.6,0.5,0.7C435,285.4,435,285.5,435,285.6z"/>
	</g>
	<g id="XMLID_2_">
		<path id="XMLID_30_" class="st0" d="M181,225.5c-0.6,1-0.9,2.3-0.9,3.7v12.9c0,1.4-0.4,2.8-1.3,4c-0.9,1.2-2,2.2-3.4,2.9
			c-1.4,0.7-2.8,1.1-4.3,1.1c-1.5,0-2.9-0.4-4.3-1.1c-3.1-1.6-4.7-3.9-4.7-6.9v-12.8c0-1.5,0.4-2.8,1.3-4.1c0.9-1.2,2-2.2,3.4-3
			c1.4-0.8,2.8-1.1,4.3-1.1c1.3,0,2.6,0.3,3.9,0.9c1.3,0.6,2.3,1.4,3.2,2.5c1.5-2.3,3.5-3.4,5.9-3.4c1.2,0,2.3,0.3,3.5,0.8
			c2.6,1.3,3.9,3.2,3.9,5.6v16.1c0,1.2-0.2,2.4-0.6,3.5c-0.5,1.4-1.1,2.4-1.9,2.9h-3.3c1.7-1.4,2.5-3.5,2.5-6.4v-16.1
			c0-0.7-0.2-1.3-0.6-1.9c-0.9-1.4-2.1-2.1-3.5-2.1C182.8,223.6,181.7,224.2,181,225.5z M168.4,224.4c-2,1.2-3,2.9-3,4.9v12.8
			c0,1.5,0.6,2.8,1.7,3.9c1.1,1.1,2.5,1.6,4,1.6c1,0,1.9-0.3,2.8-0.8c1.9-1.1,2.9-2.7,2.9-4.8v-13c0-1.5-0.6-2.8-1.7-3.9
			c-1.1-1.1-2.5-1.6-4-1.6C170.2,223.6,169.3,223.9,168.4,224.4z"/>
		<path id="XMLID_28_" class="st0" d="M199.1,227.5c-0.6,1.7-0.9,4.2-0.9,7.3c0,7.2,1.1,12.3,3.3,15.3h-3.3c-1.1-1.4-2-3.9-2.6-7.4
			c-0.5-2.7-0.7-5.3-0.7-8c0-4.1,0.4-7.2,1.3-9.2c1.3-3,4-4.5,8.1-4.5c4.1,0,6.8,1.5,8.1,4.4c0.8,2,1.3,5,1.3,9.3
			c0,2.8-0.2,5.6-0.7,8.4c-0.6,3.3-1.4,5.6-2.5,6.9h-3.3c0.8-1,1.4-2.4,1.9-4.3c0.9-3.3,1.3-7,1.3-11.1c0-3.2-0.3-5.7-0.8-7.3
			c-0.9-2.6-2.6-3.9-5.3-3.9C201.7,223.6,199.9,224.9,199.1,227.5z"/>
		<path id="XMLID_25_" class="st0" d="M221.7,222v2.3h8.1v9.7c1.8,0.6,3.3,1.6,4.6,3.1c1.3,1.5,1.9,3.2,1.9,5c0,2.3-1,4.2-3,5.8
			c-1.9,1.5-4,2.2-6.4,2.2c-2.4,0-4.5-0.7-6.4-2.2c-2-1.6-3-3.5-3-5.8c0-1.5,0.4-2.8,1.3-4.1c0.9-1.2,2-2.2,3.4-2.9
			c1.4-0.7,2.8-1.1,4.3-1.1v-7.2h-3.7c-1.4,0-2.2,0-2.4,0c-1.1-0.1-1.7-0.5-1.9-1.1c-0.1-0.3-0.2-0.9-0.2-1.7v-2H221.7z
			 M224.1,237.3c-2.1,1.2-3.2,2.8-3.2,4.9c0,1.5,0.6,2.8,1.9,3.9c1.3,1.1,2.7,1.6,4.2,1.6c0.9,0,1.9-0.3,2.8-0.8
			c2.2-1.2,3.3-2.7,3.3-4.8c0-1-0.3-1.9-0.9-2.8c-1.3-1.9-3.1-2.9-5.2-2.9C226,236.5,225.1,236.7,224.1,237.3z"/>
		<path id="XMLID_23_" class="st0" d="M245.5,227.5c-0.6,1.7-0.9,4.2-0.9,7.3c0,7.2,1.1,12.3,3.3,15.3h-3.3c-1.1-1.4-2-3.9-2.6-7.4
			c-0.5-2.7-0.7-5.3-0.7-8c0-4.1,0.4-7.2,1.3-9.2c1.3-3,4-4.5,8.1-4.5c4.1,0,6.8,1.5,8.1,4.4c0.8,2,1.3,5,1.3,9.3
			c0,2.8-0.2,5.6-0.7,8.4c-0.6,3.3-1.4,5.6-2.5,6.9h-3.3c0.8-1,1.4-2.4,1.9-4.3c0.9-3.3,1.3-7,1.3-11.1c0-3.2-0.3-5.7-0.8-7.3
			c-0.9-2.6-2.6-3.9-5.3-3.9C248.1,223.6,246.3,224.9,245.5,227.5z"/>
		<path id="XMLID_21_" class="st0" d="M267.3,222v20.5c0,3.5,1.8,5.2,5.3,5.2c1.9,0,3.2-0.4,4.1-1.2c0.8-0.8,1.3-2.1,1.3-4
			c0-1.4-0.3-2.5-0.9-3.3c-0.2-0.4-0.8-0.9-1.5-1.6c-0.6-0.5-0.9-1-0.9-1.4c0-1,0.3-1.7,0.8-2h3.3c-0.5,0.2-0.8,0.7-0.8,1.6
			c0,0.5,0.5,1.2,1.6,2.1c1.1,0.9,1.6,2.5,1.6,4.7c0,1.4-0.3,2.7-1,3.9c-1.4,2.5-3.9,3.7-7.6,3.7c-2.5,0-4.5-0.7-6.1-2
			c-1.7-1.4-2.5-3.3-2.5-5.7V222H267.3z"/>
		<path id="XMLID_17_" class="st0" d="M289.5,227.5c-0.6,1.7-0.9,4.2-0.9,7.3c0,7.2,1.1,12.3,3.3,15.3h-3.3c-1.1-1.4-2-3.9-2.6-7.4
			c-0.5-2.7-0.7-5.3-0.7-8c0-4.1,0.4-7.2,1.3-9.2c1.3-3,4-4.5,8.1-4.5c4.1,0,6.8,1.5,8.1,4.4c0.8,2,1.3,5,1.3,9.3
			c0,2.8-0.2,5.6-0.7,8.4c-0.6,3.3-1.4,5.6-2.5,6.9h-3.3c0.8-1,1.4-2.4,1.9-4.3c0.9-3.3,1.3-7,1.3-11.1c0-3.2-0.3-5.7-0.8-7.3
			c-0.9-2.6-2.6-3.9-5.3-3.9C292.1,223.6,290.4,224.9,289.5,227.5z"/>
		<path id="XMLID_3_" class="st0" d="M333.3,222v2.3h8.1v9.7c1.8,0.6,3.3,1.6,4.6,3.1c1.3,1.5,2,3.2,2,5c0,2.3-1,4.2-3,5.8
			c-1.9,1.5-4,2.2-6.4,2.2c-2.4,0-4.5-0.7-6.4-2.2c-2-1.6-3-3.5-3-5.8c0-1.5,0.4-2.8,1.3-4.1c0.9-1.2,2-2.2,3.4-2.9
			c1.4-0.7,2.8-1.1,4.3-1.1v-7.2h-3.7c-1.4,0-2.2,0-2.4,0c-1.1-0.1-1.7-0.5-1.9-1.1c-0.1-0.3-0.2-0.9-0.2-1.7v-2H333.3z
			 M335.6,237.3c-2.1,1.2-3.2,2.8-3.2,4.9c0,1.5,0.6,2.8,1.9,3.9c1.3,1.1,2.7,1.6,4.2,1.6c0.9,0,1.9-0.3,2.8-0.8
			c2.2-1.2,3.3-2.7,3.3-4.8c0-1-0.3-1.9-0.9-2.8c-1.3-1.9-3.1-2.9-5.2-2.9C337.6,236.5,336.6,236.7,335.6,237.3z"/>
		<path id="XMLID_12_" class="st0" d="M355.9,222h3.3v2c0,1.4,0.5,2.6,1.5,3.6c0.4,0.3,1.5,1.2,3.4,2.5c1.9,1.3,3.3,2.7,4.2,4.2
			c0.9,1.6,1.4,3.5,1.4,5.7c0,2.8-0.8,5.2-2.3,7.1c-1.6,2-3.8,3.1-6.7,3.1c-2.4,0-4.5-0.8-6.3-2.5c-1.8-1.6-2.7-3.6-2.7-6
			c0-2.5,0.4-4,1.3-4.5h3.3c-0.8,0.6-1.3,2.1-1.3,4.5c0,0.9,0.3,1.8,0.8,2.8c1.2,2.1,2.8,3.2,4.9,3.2c2,0,3.4-0.8,4.4-2.5
			c0.8-1.4,1.3-3.1,1.3-5.1c0-2.1-0.4-3.8-1.3-5.1c-0.7-1.1-2-2.2-3.9-3.3c-2-1.2-3.3-2.2-3.9-3c-0.9-1.1-1.4-2.6-1.4-4.3V222z"/>
		<path id="XMLID_9_" class="st0" d="M390.3,221.1v1.7c0,2.1-1.3,3.2-4,3.2c-1,0-2.1-0.3-3.3-0.8c-1.2-0.5-2.2-0.8-2.9-0.8
			c-1.9,0-2.8,0.8-2.8,2.5v8.9c1-1.1,2.8-1.6,5.3-1.6c2.5,0,4.5,0.7,6.1,2.2c1.6,1.5,2.4,3.4,2.4,5.9c0,1.7-0.4,3.1-1.1,4.3
			c-1.5,2.4-4,3.7-7.5,3.7c-1.4,0-2.8-0.3-4.1-0.8c-3-1.3-4.4-3.3-4.4-6.1v-16.4c0-0.9,0.2-1.7,0.7-2.4c1.1-1.6,2.8-2.4,5-2.4
			c0.8,0,1.4,0,1.7,0.1c0.2,0,0.8,0.2,1.8,0.4c0.8,0.2,1.4,0.3,1.9,0.3c2.8,0,4.3-0.6,4.3-1.7H390.3z M378.5,237.8
			c-0.8,0.9-1.2,2.3-1.2,4.3c0,1.7,0.4,3,1.3,4c0.9,1,2.3,1.6,4,1.6c3.5,0,5.3-1.9,5.3-5.6c0-1.4-0.2-2.5-0.5-3.3
			c-0.7-1.6-2.3-2.4-4.8-2.4C380.7,236.5,379.3,236.9,378.5,237.8z"/>
		<path id="XMLID_7_" class="st0" d="M409.1,233.6c2.3,1.3,3.4,3.1,3.4,5.3v4c0,2.1-0.9,3.9-2.7,5.3c-1.7,1.3-3.6,1.9-5.9,1.9
			c-2.5,0-4.6-0.7-6.1-2.1c-1.6-1.4-2.4-3.4-2.4-5.9c0-2.4,0.4-4,1.3-4.9h3.3c-0.8,1.3-1.3,3-1.3,4.9c0,1.6,0.5,2.9,1.5,4
			c1,1.1,2.3,1.6,3.9,1.6c1.5,0,2.8-0.4,3.8-1.3c1-0.8,1.5-2,1.5-3.5v-4c0-0.7-0.2-1.3-0.6-2c-0.9-1.4-2.1-2.1-3.5-2.1v-2.4
			c1.4,0,2.4-0.5,3.2-1.4c0.7-0.9,1-2,1-3.4c0-0.4-0.1-0.9-0.3-1.4c-0.5-1.2-1.2-1.8-2.2-1.8v-3.2c1.6,0,2.9,0.7,4,2
			c1.1,1.4,1.7,2.8,1.7,4.4C412.6,230.1,411.4,232.1,409.1,233.6z"/>
		<path id="XMLID_5_" class="st0" d="M420.3,227.5c-0.6,1.7-0.9,4.2-0.9,7.3c0,7.2,1.1,12.3,3.3,15.3h-3.3c-1.1-1.4-2-3.9-2.6-7.4
			c-0.5-2.7-0.7-5.3-0.7-8c0-4.1,0.4-7.2,1.3-9.2c1.3-3,4-4.5,8.1-4.5c4.1,0,6.8,1.5,8.1,4.4c0.8,2,1.3,5,1.3,9.3
			c0,2.8-0.2,5.6-0.7,8.4c-0.6,3.3-1.4,5.6-2.5,6.9h-3.3c0.8-1,1.4-2.4,1.9-4.3c0.9-3.3,1.3-7,1.3-11.1c0-3.2-0.3-5.7-0.8-7.3
			c-0.9-2.6-2.6-3.9-5.3-3.9C422.9,223.6,421.2,224.9,420.3,227.5z"/>
	</g>
</g>
</svg>
